<?xml version="1.0" encoding="UTF-8"?>
<svg width="20" height="20" version="1.1" viewBox="0 0 18.81 18.737" xml:space="preserve" xmlns="http://www.w3.org/2000/svg"><g transform="translate(5.03 -50.19)"><g transform="matrix(1.97,0,0,1.97,0,-62.1)"><g transform="translate(-44.548 76.557)"><g transform="translate(-10.859 10.952)" stroke-width=".02387"><path d="m53.597-24.8c0-2.6679 0.01216-2.9355 0.03648-2.9476s7.9649-0.01216 8.0014 0c0.02432 0.01216 0.02432 0.27968 0.02432 2.9476v2.9257h-8.0622z" fill="#fff" stroke="#000" stroke-linecap="round" stroke-linejoin="round" stroke-opacity=".93802" stroke-width=".02387"/><g><g transform="matrix(.36724 0 0 .36724 45.875 -37.314)"><g><path d="m43 24h-22c-1.1 0-2 0.9-2 2v16c0 1.1 0.9 2 2 2h22c1.1 0 2-0.9 2-2v-16c0-1.1-0.9-2-2-2zm0 18h-22v-16h22z"/></g></g><g transform="matrix(.36724 0 0 .36724 45.875 -37.314)"><g><path d="m19.1 26h2l-0.2-0.7 20.8-4.4 1.2 5.1h2l-1.3-5.5c-0.2-1-1.2-1.7-2.3-1.5l-20.8 4.5c-1 0.2-1.7 1.2-1.4 2.2z"/></g></g><g transform="matrix(.36724 0 0 .36724 35.71 -30.955)"><path d="m70.8 18.7h-5v-4h5v-2h-5c-1.1 0-2 0.9-2 2v4c0 1.1 0.9 2 2 2h5z"/></g><g transform="matrix(.01289 0 0 .01289 54.655 -27.136)"><g><path d="m217 167c19-9 30-26 28-54-4-38-37-50.7-78-54.4v-52.71h-33v51.31c-8 0-17 0.2-25 0.4v-51.7h-32.3l-0.1 52.7c-6.9 0.2-13.7 0.3-20.4 0.3v-0.2h-44.4l0.1 34.3s23.7-0.4 23.3 0c13 0 17.3 8 18.5 14v145c-0.6 4-3 10-12.1 10 0.4 1-23.4 0-23.4 0l-6.3 39h41.8 22.9l0.1 53h32.3v-53c9 0 17 1 25 1v52h33v-53c54-3 91-17 96-68 4-40-15-59-46-66zm-107-71.7c18 0 75-5.7 75 31.7 0 37-57 32-75 32zm0 166.7v-70c21 0 90-6 90 35 0 40-69 35-90 35z"/></g></g></g></g></g></g></g></svg>
